Patient4_TMGait_0pt7_01_left_32_EMG.mot
version=1
nRows=20
nColumns=33
inDegrees=no
endheader
time	1LAddLong	2LGlutMax	3LGlutMed	4LIliopsoas	5LSemiMemb	6LBicFemLong	7LRecFem	8LVastMed	9LVastLat	10LGasMed	11LTibAnt	12lTibPost	13LPeroneusLong	14LSol	15LExtDigLong	16LFlexDigLong	17RAddLong	18RGlutMax	19RGlutMed	20RIliopsoas	21RSemiMemb	22RBicFemLong	23RRecFem	24RVastMed	25RVastLat	26RGasMed	27RTibAnt	28RTibPost	29RPeroneusLong	30RSol	31RExtDigLong	32RFlexDigLong
37.362	0.038605	0.74677	-0.21439	0.000763	-0.044403	0.23743	-0.08667	0.01358	-0.19501	0.087433	0.010071	0.001984	0.072327	-0.10513	0.070343	0.030823	-0.027924	-0.15091	0.19669	0.001526	-0.095978	0.20309	0.43015	0.00885	0.048523	-0.014954	0.57068	0.000153	-0.14557	-0.024719	-0.004272	0.005493
37.363	0.044556	0.85922	-0.1384	0.013428	-0.037079	0.030212	-0.32257	-0.006104	-0.32547	0.065155	0.015106	0.013275	-0.005188	-0.24445	0.01709	0.040588	-0.097351	-0.080261	0.23697	0.019989	-0.065155	0.093842	0.45227	-0.07431	0.040894	-0.011597	0.35278	-0.001221	-0.17197	-0.088959	-0.001221	0.002899
37.364	0.044708	1.0344	-0.007782	0.022125	-0.03479	0.056	-0.58136	-0.037842	-0.32577	0.030975	0.011444	0.010681	0.04303	-0.39871	-0.007019	0.04303	-0.16205	-0.12131	0.2713	0.011902	-0.069122	0.023499	0.44647	-0.069733	0.050812	-0.024567	-0.42954	0.00061	-0.11368	-0.096588	-0.005035	0.007629
37.365	0.019073	1.2054	0.069427	0.029602	0.030212	0.14206	-0.47333	-0.055389	-0.27969	0.000458	0.007172	0.015717	0.066528	-0.43671	-0.009766	0.040283	-0.17853	-0.13214	0.23361	0.022278	-0.045319	0.023804	0.45334	0.010529	0.052948	-0.023651	-0.35065	-0.004578	0.066071	-0.16769	-0.001221	0.008545
37.366	-0.010223	1.3559	0.4187	0.018921	0.026855	0.093842	-0.25436	-0.038147	-0.22766	-0.013123	0.000916	0.026245	0.055237	-0.28137	0.005646	0.041656	-0.16357	-0.099792	0.24826	0.036621	-0.01709	0.08194	0.41473	0.07431	0.067596	-0.009155	-0.41718	0.001526	0.25375	-0.20111	-0.000458	0.007629
37.367	-0.03067	1.5143	0.12207	0.00412	-0.066986	0.12116	-0.014648	-0.003815	-0.12268	0.016479	0.030518	0.032654	0.003052	-0.13138	0.009003	0.051422	-0.076599	-0.15656	0.25101	0.12482	-0.010681	0.031128	0.39948	0.036926	0.049133	-0.014038	0.55756	0	0.056763	-0.10574	-0.000458	-0.005035
37.368	-0.053864	1.7276	0.030365	0.014343	-0.15488	0.20905	0.070648	0.001678	-0.030212	0.0177	0.062866	0.036926	0.015564	0.051727	-0.005951	-0.11444	-0.023651	-0.25055	0.1062	0.25909	0.016174	-0.025787	0.40451	0.053558	0.043793	-0.016785	0.64301	0.002136	-0.17716	-0.039368	0.000305	0
37.369	-0.043335	1.8819	-0.010681	0.021973	-0.2652	0.26657	0.083923	0.011902	-0.078888	-0.010071	0.032043	0.040436	0.039063	0.23331	-0.024719	-0.005188	0.08316	-0.24689	0.077209	0.26077	-0.021057	0.00885	0.42404	0.11704	0.04425	-0.011749	0.13306	-0.000153	0.024414	-0.14358	-0.002899	0.000916
37.37	-0.028381	2.1484	0.026703	0.012054	-0.18677	0.27222	-0.009155	0.012054	-0.22308	-0.0383	-0.044708	0.042114	0.030518	0.34943	0.004425	0.19699	0.14618	-0.25711	0.10956	0.19669	-0.051575	0.054321	0.47012	-0.019684	-0.00351	0.004272	0.16846	0.007324	0.25116	-0.21912	-0.001831	-0.000916
37.371	-0.025177	2.1733	0.15137	-0.000458	-0.066986	0.25574	-0.074463	0.016174	-0.22949	-0.016022	0.018616	0.051575	-0.039063	0.26474	0.023651	0.12726	0.12894	-0.26504	0.14862	0.14358	-0.079651	0.068054	0.53451	-0.066986	-0.042877	0.006256	-0.36346	-0.002594	0.17471	-0.19516	-0.005188	0.007324
37.372	-0.031891	2.0757	-0.0737	0.002594	-0.026703	-0.024567	-0.087433	0.01297	-0.12085	-0.009766	0.11032	0.05661	-0.068512	0.086975	0.08316	0.051117	0.13473	-0.34988	0.097961	0.044403	-0.099792	0.024261	0.53375	-0.057373	-0.048523	0.007782	-0.14771	0.000458	-0.13046	-0.14542	-0.002136	0.008392
37.373	-0.040894	2.0049	-0.16174	-0.007935	-0.032196	-0.0383	-0.11536	0.02121	-0.041809	-0.031891	0.064545	0.058594	-0.021057	0.010529	0.068054	-0.007782	0.1062	-0.44052	0.06958	-0.11032	-0.11017	0.00061	0.45761	-0.023956	-0.026245	0.012512	-0.021973	-0.000763	-0.048676	-0.27329	-0.004578	0.000458
37.374	-0.036774	1.884	-0.21713	-0.002747	-0.082703	0.1384	-0.17059	0.020142	-0.041046	-0.053406	-0.084534	0.060577	0.042114	0.061951	-0.029602	-0.014343	0.052643	-0.4773	0.089417	-0.10773	-0.16663	-0.037842	0.44311	-0.069733	-0.038757	0.019836	-0.60821	-0.000763	0.039825	-0.21896	-0.002594	0.013428
37.375	-0.027771	1.8034	-0.21896	-0.006561	-0.088959	0.22492	-0.14328	0.024109	-0.043488	-0.067902	-0.054932	0.063782	0.062256	0.035553	-0.112	-0.001221	0.016937	-0.5394	0.097961	-0.016327	-0.20172	-0.067444	0.37064	-0.036163	-0.014801	0.01709	-0.96283	-0.001678	0.12405	0.012054	-0.001984	-0.002136
37.376	-0.016785	1.7212	-0.27786	-0.011139	-0.0914	0.27008	-0.16419	0.016174	0.033112	-0.060425	0.00885	0.063934	0.069122	0.026245	-0.050507	0.020752	0.096893	-0.60669	-0.015106	0.043488	-0.24536	-0.058289	0.34882	0.018768	-0.007782	0.007324	-0.56091	-0.003204	0.097656	0.22751	-0.006409	-0.009308
37.377	-0.008392	1.5681	0.074463	-0.007324	-0.12131	0.19104	-0.18784	-0.008392	0.13229	-0.045776	0.011292	0.06012	0.068359	0.037079	-0.039978	0.018768	0.089417	-0.64346	0.00946	0.042419	-0.27771	0.076447	0.31372	-0.043488	-0.02121	-0.007019	0.33173	-0.006104	0.066376	0.24307	-0.003357	-0.01709
37.378	0.001373	1.4838	0.30716	0.000763	-0.12116	-0.031586	-0.2536	-0.009613	0.15732	-0.048828	0.001984	0.05188	0.05249	-0.00946	-0.10147	0.013885	0.044403	-0.59097	0.088654	0.068359	-0.32013	0.14587	0.35904	-0.1152	-0.029907	0.006866	0.43121	0.004272	0.1265	0.13336	-0.001678	-0.014801
37.379	0.037689	1.1853	0.15488	0.011597	-0.090332	-0.085602	-0.25482	-0.009613	0.0737	-0.053558	-0.016785	0.046997	-0.023499	-0.065155	-0.037537	0.017242	0.036163	-0.63355	0.10956	-0.10437	-0.32105	0.13977	0.30411	-0.087585	-0.023651	0.005798	-0.65094	-0.002747	0.097351	0.14038	-0.001373	-0.004425
37.38	0.037079	0.91888	-0.068207	0.024719	-0.022736	-0.1091	-0.25986	-0.004578	-0.012665	-0.072174	-0.012817	0.046692	-0.031586	-0.006104	0.026245	0.17242	0.03006	-0.63171	0.16495	-0.15915	-0.29373	0.090027	0.34439	-0.092316	-0.026093	0.003052	-0.76462	-0.000916	-0.009003	0.14481	0.000763	-0.002747
37.381	0.037079	0.69977	0.0177	0.023499	0.12177	0.044098	-0.24078	-0.00061	0.006104	-0.1178	-0.011902	0.061798	-0.019226	-0.003357	0.050964	-0.73486	-0.032806	-0.60806	0.041809	-0.20798	-0.20233	0.076904	0.30701	-0.037842	-0.007629	0.003204	0.12177	-0.002441	-0.037079	0.12116	-0.000153	0.001831
